HIERARCHY
ROOT Hips
{
	OFFSET -338.882294 -555.210510 88.995560
	CHANNELS 6 Xposition Yposition Zposition Zrotation Yrotation Xrotation
	JOINT Spine
	{
		OFFSET 0.000000 2.080078 8.814247
		CHANNELS 6 Xposition Yposition Zposition Zrotation Yrotation Xrotation
		JOINT Spine1
		{
			OFFSET 0.000000 0.000000 8.844139
			CHANNELS 6 Xposition Yposition Zposition Zrotation Yrotation Xrotation
			JOINT Spine2
			{
				OFFSET 0.000000 0.000000 11.682266
				CHANNELS 6 Xposition Yposition Zposition Zrotation Yrotation Xrotation
				JOINT Spine3
				{
					OFFSET 0.000000 0.000000 11.746704
					CHANNELS 6 Xposition Yposition Zposition Zrotation Yrotation Xrotation
					JOINT Neck
					{
						OFFSET 0.000000 0.000000 17.658264
						CHANNELS 6 Xposition Yposition Zposition Zrotation Yrotation Xrotation
						JOINT Neck1
						{
							OFFSET 0.000000 0.000000 5.101517
							CHANNELS 6 Xposition Yposition Zposition Zrotation Yrotation Xrotation
							JOINT Head
							{
								OFFSET 0.000000 0.000000 5.101517
								CHANNELS 6 Xposition Yposition Zposition Zrotation Yrotation Xrotation
								JOINT HeadEnd
								{
									OFFSET 0.000000 0.000000 11.655090
									CHANNELS 6 Xposition Yposition Zposition Zrotation Yrotation Xrotation
									End Site
									{
										OFFSET 0.000000 0.000000 0.100006
									}
								}
							}
						}
					}
					JOINT RightShoulder
					{
						OFFSET -2.625397 0.000000 11.175217
						CHANNELS 6 Xposition Yposition Zposition Zrotation Yrotation Xrotation
						JOINT RightArm
						{
							OFFSET 0.000000 0.000000 10.434723
							CHANNELS 6 Xposition Yposition Zposition Zrotation Yrotation Xrotation
							JOINT RightForeArm
							{
								OFFSET 0.000000 0.000000 29.628418
								CHANNELS 6 Xposition Yposition Zposition Zrotation Yrotation Xrotation
								JOINT RightHand
								{
									OFFSET 0.000000 0.000000 22.857605
									CHANNELS 6 Xposition Yposition Zposition Zrotation Yrotation Xrotation
									JOINT RightHandThumb1
									{
										OFFSET -2.867310 -2.944275 3.959564
										CHANNELS 6 Xposition Yposition Zposition Zrotation Yrotation Xrotation
										JOINT RightHandThumb2
										{
											OFFSET 0.000000 0.000000 3.350403
											CHANNELS 6 Xposition Yposition Zposition Zrotation Yrotation Xrotation
											JOINT RightHandThumb3
											{
												OFFSET 0.000000 0.000000 3.756516
												CHANNELS 6 Xposition Yposition Zposition Zrotation Yrotation Xrotation
												JOINT RightHandThumb4
												{
													OFFSET 0.000000 0.000000 3.147339
													CHANNELS 6 Xposition Yposition Zposition Zrotation Yrotation Xrotation
													End Site
													{
														OFFSET 0.000000 0.000000 0.100006
													}
												}
											}
										}
									}
									JOINT RightHandIndex1
									{
										OFFSET -0.086761 -2.345276 10.030899
										CHANNELS 6 Xposition Yposition Zposition Zrotation Yrotation Xrotation
										JOINT RightHandIndex2
										{
											OFFSET 0.000000 0.000000 4.061096
											CHANNELS 6 Xposition Yposition Zposition Zrotation Yrotation Xrotation
											JOINT RightHandIndex3
											{
												OFFSET 0.000000 0.000000 3.248871
												CHANNELS 6 Xposition Yposition Zposition Zrotation Yrotation Xrotation
												JOINT RightHandIndex4
												{
													OFFSET 0.000000 0.000000 2.639709
													CHANNELS 6 Xposition Yposition Zposition Zrotation Yrotation Xrotation
													End Site
													{
														OFFSET 0.000000 0.000000 0.100006
													}
												}
											}
										}
									}
									JOINT RightHandMiddle1
									{
										OFFSET 0.104095 -0.006775 9.502945
										CHANNELS 6 Xposition Yposition Zposition Zrotation Yrotation Xrotation
										JOINT RightHandMiddle2
										{
											OFFSET 0.000000 0.000000 4.568726
											CHANNELS 6 Xposition Yposition Zposition Zrotation Yrotation Xrotation
											JOINT RightHandMiddle3
											{
												OFFSET 0.000000 0.000000 3.654984
												CHANNELS 6 Xposition Yposition Zposition Zrotation Yrotation Xrotation
												JOINT RightHandMiddle4
												{
													OFFSET 0.000000 0.000000 2.741241
													CHANNELS 6 Xposition Yposition Zposition Zrotation Yrotation Xrotation
													End Site
													{
														OFFSET 0.000000 0.000000 0.100006
													}
												}
											}
										}
									}
									JOINT RightHandRing1
									{
										OFFSET 0.086761 2.267456 8.921707
										CHANNELS 6 Xposition Yposition Zposition Zrotation Yrotation Xrotation
										JOINT RightHandRing2
										{
											OFFSET 0.000000 0.000000 4.061096
											CHANNELS 6 Xposition Yposition Zposition Zrotation Yrotation Xrotation
											JOINT RightHandRing3
											{
												OFFSET 0.000000 0.000000 3.654984
												CHANNELS 6 Xposition Yposition Zposition Zrotation Yrotation Xrotation
												JOINT RightHandRing4
												{
													OFFSET 0.000000 0.000000 2.741241
													CHANNELS 6 Xposition Yposition Zposition Zrotation Yrotation Xrotation
													End Site
													{
														OFFSET 0.000000 0.000000 0.100006
													}
												}
											}
										}
									}
									JOINT RightHandPinky1
									{
										OFFSET -0.173492 4.467224 7.976990
										CHANNELS 6 Xposition Yposition Zposition Zrotation Yrotation Xrotation
										JOINT RightHandPinky2
										{
											OFFSET 0.000000 0.000000 3.350403
											CHANNELS 6 Xposition Yposition Zposition Zrotation Yrotation Xrotation
											JOINT RightHandPinky3
											{
												OFFSET 0.000000 0.000000 2.842758
												CHANNELS 6 Xposition Yposition Zposition Zrotation Yrotation Xrotation
												JOINT RightHandPinky4
												{
													OFFSET 0.000000 0.000000 2.639709
													CHANNELS 6 Xposition Yposition Zposition Zrotation Yrotation Xrotation
													End Site
													{
														OFFSET 0.000000 0.000000 0.100006
													}
												}
											}
										}
									}
									JOINT RightForeArmEnd
									{
										OFFSET 0.000000 0.000000 0.000000
										CHANNELS 6 Xposition Yposition Zposition Zrotation Yrotation Xrotation
										End Site
										{
											OFFSET 0.000000 0.000000 0.100006
										}
									}
								}
								JOINT RightArmEnd
								{
									OFFSET 0.000000 0.000000 0.000000
									CHANNELS 6 Xposition Yposition Zposition Zrotation Yrotation Xrotation
									End Site
									{
										OFFSET 0.000000 0.000000 0.100006
									}
								}
							}
						}
					}
					JOINT LeftShoulder
					{
						OFFSET 2.625397 0.000000 11.175217
						CHANNELS 6 Xposition Yposition Zposition Zrotation Yrotation Xrotation
						JOINT LeftArm
						{
							OFFSET 0.000000 0.000000 10.813629
							CHANNELS 6 Xposition Yposition Zposition Zrotation Yrotation Xrotation
							JOINT LeftForeArm
							{
								OFFSET 0.000000 0.000000 28.724777
								CHANNELS 6 Xposition Yposition Zposition Zrotation Yrotation Xrotation
								JOINT LeftHand
								{
									OFFSET 0.644379 0.328857 25.716171
									CHANNELS 6 Xposition Yposition Zposition Zrotation Yrotation Xrotation
									JOINT LeftHandThumb1
									{
										OFFSET 2.867310 -2.944275 3.959564
										CHANNELS 6 Xposition Yposition Zposition Zrotation Yrotation Xrotation
										JOINT LeftHandThumb2
										{
											OFFSET 0.000000 0.000000 3.350403
											CHANNELS 6 Xposition Yposition Zposition Zrotation Yrotation Xrotation
											JOINT LeftHandThumb3
											{
												OFFSET 0.000000 0.000000 3.756516
												CHANNELS 6 Xposition Yposition Zposition Zrotation Yrotation Xrotation
												JOINT LeftHandThumb4
												{
													OFFSET 0.000000 0.000000 3.100006
													CHANNELS 6 Xposition Yposition Zposition Zrotation Yrotation Xrotation
													End Site
													{
														OFFSET 0.000000 0.000000 0.100006
													}
												}
											}
										}
									}
									JOINT LeftHandIndex1
									{
										OFFSET 0.086761 -2.345276 10.030899
										CHANNELS 6 Xposition Yposition Zposition Zrotation Yrotation Xrotation
										JOINT LeftHandIndex2
										{
											OFFSET 0.000000 0.000000 4.061096
											CHANNELS 6 Xposition Yposition Zposition Zrotation Yrotation Xrotation
											JOINT LeftHandIndex3
											{
												OFFSET 0.000000 0.000000 3.248871
												CHANNELS 6 Xposition Yposition Zposition Zrotation Yrotation Xrotation
												JOINT LeftHandIndex4
												{
													OFFSET 0.000000 0.000000 2.639709
													CHANNELS 6 Xposition Yposition Zposition Zrotation Yrotation Xrotation
													End Site
													{
														OFFSET 0.000000 0.000000 0.100006
													}
												}
											}
										}
									}
									JOINT LeftHandMiddle1
									{
										OFFSET -0.104095 -0.006775 9.502945
										CHANNELS 6 Xposition Yposition Zposition Zrotation Yrotation Xrotation
										JOINT LeftHandMiddle2
										{
											OFFSET 0.000000 0.000000 4.568726
											CHANNELS 6 Xposition Yposition Zposition Zrotation Yrotation Xrotation
											JOINT LeftHandMiddle3
											{
												OFFSET 0.000000 0.000000 3.654984
												CHANNELS 6 Xposition Yposition Zposition Zrotation Yrotation Xrotation
												JOINT LeftHandMiddle4
												{
													OFFSET 0.000000 0.000000 2.741241
													CHANNELS 6 Xposition Yposition Zposition Zrotation Yrotation Xrotation
													End Site
													{
														OFFSET 0.000000 0.000000 0.100006
													}
												}
											}
										}
									}
									JOINT LeftHandRing1
									{
										OFFSET -0.086761 2.267456 8.921707
										CHANNELS 6 Xposition Yposition Zposition Zrotation Yrotation Xrotation
										JOINT LeftHandRing2
										{
											OFFSET 0.000000 0.000000 4.061096
											CHANNELS 6 Xposition Yposition Zposition Zrotation Yrotation Xrotation
											JOINT LeftHandRing3
											{
												OFFSET 0.000000 0.000000 3.654984
												CHANNELS 6 Xposition Yposition Zposition Zrotation Yrotation Xrotation
												JOINT LeftHandRing4
												{
													OFFSET 0.000000 0.000000 2.741241
													CHANNELS 6 Xposition Yposition Zposition Zrotation Yrotation Xrotation
													End Site
													{
														OFFSET 0.000000 0.000000 0.100006
													}
												}
											}
										}
									}
									JOINT LeftHandPinky1
									{
										OFFSET 0.173492 4.467224 7.976990
										CHANNELS 6 Xposition Yposition Zposition Zrotation Yrotation Xrotation
										JOINT LeftHandPinky2
										{
											OFFSET 0.000000 0.000000 3.350403
											CHANNELS 6 Xposition Yposition Zposition Zrotation Yrotation Xrotation
											JOINT LeftHandPinky3
											{
												OFFSET 0.000000 0.000000 2.842758
												CHANNELS 6 Xposition Yposition Zposition Zrotation Yrotation Xrotation
												JOINT LeftHandPinky4
												{
													OFFSET 0.000000 0.000000 2.639709
													CHANNELS 6 Xposition Yposition Zposition Zrotation Yrotation Xrotation
													End Site
													{
														OFFSET 0.000000 0.000000 0.100006
													}
												}
											}
										}
									}
									JOINT LeftForeArmEnd
									{
										OFFSET 0.000000 0.000000 0.000000
										CHANNELS 6 Xposition Yposition Zposition Zrotation Yrotation Xrotation
										End Site
										{
											OFFSET 0.000000 0.000000 0.100006
										}
									}
								}
								JOINT LeftArmEnd
								{
									OFFSET 0.000000 0.000000 0.000000
									CHANNELS 6 Xposition Yposition Zposition Zrotation Yrotation Xrotation
									End Site
									{
										OFFSET 0.000000 0.000000 0.100006
									}
								}
							}
						}
					}
				}
			}
		}
	}
	JOINT RightUpLeg
	{
		OFFSET -11.289948 0.000000 0.000000
		CHANNELS 6 Xposition Yposition Zposition Zrotation Yrotation Xrotation
		JOINT RightLeg
		{
			OFFSET 0.000000 0.000000 -38.200321
			CHANNELS 6 Xposition Yposition Zposition Zrotation Yrotation Xrotation
			JOINT RightFoot
			{
				OFFSET 0.000000 0.000000 -39.900856
				CHANNELS 6 Xposition Yposition Zposition Zrotation Yrotation Xrotation
				JOINT RightToeBase
				{
					OFFSET 0.000000 -15.261658 0.000001
					CHANNELS 6 Xposition Yposition Zposition Zrotation Yrotation Xrotation
					JOINT RightToeBaseEnd
					{
						OFFSET 0.000000 -7.370728 0.000001
						CHANNELS 6 Xposition Yposition Zposition Zrotation Yrotation Xrotation
						End Site
						{
							OFFSET 0.000000 0.000000 0.100000
						}
					}
				}
				JOINT RightLegEnd
				{
					OFFSET 0.000000 0.000000 0.000000
					CHANNELS 6 Xposition Yposition Zposition Zrotation Yrotation Xrotation
					End Site
					{
						OFFSET 0.000000 0.000000 0.100000
					}
				}
			}
			JOINT RightUpLegEnd
			{
				OFFSET 0.000000 0.000000 0.000000
				CHANNELS 6 Xposition Yposition Zposition Zrotation Yrotation Xrotation
				End Site
				{
					OFFSET 0.000000 0.000000 0.099998
				}
			}
		}
	}
	JOINT LeftUpLeg
	{
		OFFSET 11.315674 0.000000 0.000000
		CHANNELS 6 Xposition Yposition Zposition Zrotation Yrotation Xrotation
		JOINT LeftLeg
		{
			OFFSET 0.000000 0.000000 -38.200321
			CHANNELS 6 Xposition Yposition Zposition Zrotation Yrotation Xrotation
			JOINT LeftFoot
			{
				OFFSET 0.000000 0.000000 -39.900856
				CHANNELS 6 Xposition Yposition Zposition Zrotation Yrotation Xrotation
				JOINT LeftToeBase
				{
					OFFSET 0.000000 -15.261658 0.000001
					CHANNELS 6 Xposition Yposition Zposition Zrotation Yrotation Xrotation
					JOINT LeftToeBaseEnd
					{
						OFFSET 0.000000 -7.539978 0.000001
						CHANNELS 6 Xposition Yposition Zposition Zrotation Yrotation Xrotation
						End Site
						{
							OFFSET 0.000000 0.000000 0.100000
						}
					}
				}
				JOINT LeftLegEnd
				{
					OFFSET 0.000000 0.000000 0.000000
					CHANNELS 6 Xposition Yposition Zposition Zrotation Yrotation Xrotation
					End Site
					{
						OFFSET 0.000000 0.000000 0.100000
					}
				}
			}
			JOINT LeftUpLegEnd
			{
				OFFSET 0.000000 0.000000 0.000000
				CHANNELS 6 Xposition Yposition Zposition Zrotation Yrotation Xrotation
				End Site
				{
					OFFSET 0.000000 0.000000 0.099998
				}
			}
		}
	}
}
MOTION
Frames: 2
Frame Time: 0.016667
-8.578491 -11.642700 88.368149 -3.143528 0.335907 -0.228046 -0.000011 2.080082 8.814250 0.254956 -0.923254 0.035638 0.000003 -0.000030 8.844137 0.127356 0.298240 0.251868 -0.000004 0.000011 11.682269 0.456335 1.233553 2.000706 -0.000003 -0.000033 11.746708 0.183300 2.856740 1.921868 0.000015 -0.000011 17.658295 -4.523649 -13.320777 -14.465967 -0.000011 0.000004 5.101504 -1.841487 -2.142496 -16.136038 -0.000003 0.000013 5.101517 -0.658851 -0.134188 -13.332899 0.000002 0.000004 11.655087 0.000000 0.000000 0.000001 -2.625420 0.000011 11.175246 16.874252 -60.752859 0.010171 0.000029 0.000059 10.434750 -2.415511 -8.418383 25.256834 -0.000010 -0.000013 29.628384 4.214549 0.664020 131.121901 -0.000061 0.000000 22.857605 -29.448682 50.753865 20.382538 -2.867298 -2.944260 3.959579 32.925787 -27.762072 36.871277 0.000015 -0.000061 3.350426 -35.734973 9.847240 -60.076814 0.000008 -0.000008 3.756516 -23.901520 10.991377 -41.110960 -0.000001 0.000002 3.147356 -0.000001 -0.000001 0.000001 -0.086765 -2.345269 10.030926 -117.371159 -69.237587 119.964623 0.000011 0.000006 4.061111 -13.762160 -68.446999 20.843581 0.000004 -0.000025 3.248894 -14.262127 -68.446992 20.839804 0.000010 -0.000016 2.639724 0.000001 0.000003 0.000004 0.104092 -0.006779 9.502953 -126.751427 -73.294842 133.677116 -0.000021 0.000005 4.568718 -5.319869 -70.047094 8.299174 -0.000008 -0.000012 3.654964 -5.820919 -70.047019 8.299297 -0.000009 0.000012 2.741266 -0.000002 0.000000 0.000001 0.086716 2.267424 8.921721 -166.975831 -67.432279 180.828466 0.000008 -0.000022 4.061119 11.303289 -77.040641 -15.424169 -0.000053 0.000006 3.654984 12.304512 -77.040545 -15.423061 0.000021 0.000007 2.741236 0.000000 0.000001 0.000001 -0.173508 4.467222 7.977028 173.660592 -60.697364 -154.328179 -0.000015 -0.000008 3.350407 35.300419 -75.192760 -47.339990 -0.000008 0.000004 2.842754 37.300080 -75.192767 -47.341093 0.000002 0.000004 2.639723 -0.000001 0.000001 0.000001 -0.000013 -0.000003 -0.000002 0.000002 -0.000005 -0.000001 -0.000002 0.000001 0.000010 0.000000 -0.000001 0.000000 2.625412 -0.000011 11.175253 -14.877486 55.553231 -0.285593 0.000015 0.000011 10.813660 -1.906976 13.406026 5.010551 -0.000036 -0.000053 28.724800 -5.901851 1.635718 136.779347 0.644371 0.328812 25.716164 15.670558 -24.754048 9.745994 2.867306 -2.944290 3.959534 -31.666970 16.919903 52.039775 -0.000008 0.000023 3.350395 11.909765 -8.109630 -21.599454 0.000021 0.000072 3.756523 7.939267 -6.118416 -14.796756 -0.000001 0.000010 3.100003 0.000000 -0.000001 0.000001 0.086754 -2.345266 10.030910 239.801357 -87.987426 -46.192317 0.000004 -0.000028 4.061112 0.500257 -0.000009 0.000615 -0.000011 0.000025 3.248893 -0.000042 0.000003 -0.000399 0.000001 -0.000009 2.639742 0.000000 -0.000001 -0.000001 -0.104080 -0.006823 9.502941 308.512022 -81.717066 -132.330298 -0.000014 -0.000017 4.568715 0.498729 0.000231 -0.000785 -0.000004 -0.000006 3.654963 0.000343 -0.000170 -0.018197 0.000001 0.000001 2.741214 -0.000000 -0.000000 0.000001 -0.086784 2.267458 8.921707 149.310203 62.472230 151.599805 0.000031 0.000010 4.061115 14.276284 79.066721 18.458731 -0.000008 -0.000016 3.654995 15.276394 79.066775 18.459228 0.000003 -0.000004 2.741261 -0.000000 0.000000 -0.000000 0.173523 4.467180 7.976974 140.610386 54.581018 152.763997 -0.000023 0.000004 3.350401 48.457716 77.454939 60.872606 0.000023 -0.000023 2.842764 50.457657 77.454933 60.872968 -0.000004 0.000002 2.639716 -0.000000 0.000000 0.000001 -0.000005 -0.000004 0.000023 0.000000 0.000001 -0.000000 0.000047 0.000000 -0.000001 -0.000000 -0.000002 0.000004 -11.289984 0.000004 0.000007 -4.149158 -1.065149 -2.387372 -0.000042 0.000048 -38.200317 -0.610069 0.176863 16.167394 -0.000010 -0.000067 -39.900864 -13.752600 -0.630508 14.502078 0.000017 -15.261749 0.000023 0.960049 1.268781 -19.052944 -0.000012 -7.370731 0.000001 0.000001 0.000000 0.000001 -0.000031 -0.000042 -0.000001 -0.000003 -0.000001 -0.000000 -0.000036 -0.000007 -0.000005 0.000001 0.000000 0.000000 11.315619 -0.000024 0.000029 -9.855012 0.872212 -6.130213 -0.000018 -0.000025 -38.200325 -0.112901 0.045690 22.028680 -0.000029 -0.000024 -39.900852 17.871699 -0.802527 13.646306 -0.000026 -15.261710 0.000014 0.243019 -1.186034 -22.405478 -0.000034 -7.539973 0.000002 -0.000001 0.000000 0.000000 -0.000031 -0.000006 -0.000000 0.000001 -0.000000 0.000000 -0.000033 -0.000002 0.000002 0.000001 0.000000 0.000003 
-8.518219 -11.619324 88.126480 -2.948030 0.242422 -0.372350 0.000009 2.080109 8.814236 0.295846 -0.893422 0.330054 0.000005 -0.000016 8.844136 0.138726 0.304215 0.479895 0.000000 -0.000010 11.682280 0.529484 1.238659 1.930076 -0.000016 0.000020 11.746698 0.229376 2.899059 1.840164 -0.000002 0.000010 17.658272 -4.544518 -13.455482 -14.773120 0.000011 0.000030 5.101529 -1.860690 -2.157553 -16.113741 -0.000007 0.000013 5.101506 -0.655283 -0.167207 -13.512963 -0.000001 0.000004 11.655085 -0.000001 -0.000001 -0.000001 -2.625420 -0.000023 11.175235 16.917410 -60.576019 0.031454 0.000007 -0.000031 10.434727 -2.903829 -8.841692 25.680931 -0.000015 0.000019 29.628351 4.220679 0.710260 130.839514 -0.000107 -0.000023 22.857613 -29.924964 51.267031 19.923331 -2.867299 -2.944275 3.959549 32.925805 -27.762021 36.871263 -0.000015 0.000015 3.350395 -35.734979 9.847240 -60.076821 0.000023 0.000008 3.756516 -23.901545 10.991343 -41.110919 0.000001 0.000010 3.147324 -0.000001 0.000000 0.000000 -0.086811 -2.345276 10.030903 -116.851027 -69.334869 119.615737 -0.000004 -0.000032 4.061119 -13.638266 -68.326726 20.710768 -0.000023 -0.000025 3.248894 -14.138264 -68.326726 20.711176 -0.000019 0.000008 2.639709 -0.000003 -0.000002 -0.000003 0.104065 -0.006760 9.502960 -126.432744 -73.365261 133.525977 -0.000011 -0.000028 4.568726 -5.291997 -69.973799 8.268303 -0.000067 0.000029 3.655008 -5.792403 -69.973792 8.268385 -0.000014 -0.000002 2.741262 0.000000 0.000002 -0.000001 0.086700 2.267462 8.921712 -166.976460 -67.427143 180.927763 -0.000008 -0.000010 4.061096 11.292336 -77.039350 -15.411321 -0.000038 0.000020 3.654987 12.293424 -77.039309 -15.410674 -0.000007 0.000004 2.741256 -0.000001 -0.000002 -0.000001 -0.173508 4.467226 7.976974 173.649309 -60.678157 -154.383258 0.000008 0.000027 3.350410 35.362092 -75.207992 -47.400300 -0.000008 -0.000027 2.842758 37.361992 -75.207957 -47.401690 0.000001 0.000070 2.639690 -0.000000 0.000000 -0.000001 0.000001 0.000024 -0.000015 -0.000004 0.000000 -0.000003 -0.000024 -0.000001 0.000022 0.000000 0.000000 -0.000000 2.625412 -0.000017 11.175213 -14.872879 55.730782 -0.280754 -0.000021 0.000007 10.813637 -1.127998 14.210397 5.993843 -0.000023 0.000011 28.724821 -6.080836 1.581537 136.430911 0.644333 0.328854 25.716164 16.320034 -24.392854 9.531805 2.867283 -2.944275 3.959564 -31.644686 17.093785 51.773046 -0.000027 0.000008 3.350399 12.293582 -8.271519 -22.243860 0.000032 -0.000004 3.756523 8.189156 -6.261739 -15.233352 0.000036 -0.000005 3.100012 0.000000 0.000000 -0.000000 0.086768 -2.345226 10.030914 233.986763 -87.883388 -40.346624 -0.000039 -0.000022 4.061116 0.500263 0.279180 0.003046 0.000013 0.000029 3.248872 -0.000042 -0.155085 -0.000401 -0.000001 -0.000002 2.639766 -0.000000 0.000001 -0.000002 -0.104090 -0.006722 9.502956 306.717841 -81.909978 -130.539696 0.000004 0.000020 4.568710 0.498727 0.000366 -0.000782 -0.000002 -0.000000 3.654972 0.000344 -0.000170 -0.018201 0.000000 0.000003 2.741229 -0.000000 0.000000 -0.000000 -0.086781 2.267471 8.921715 148.992599 62.705884 151.252695 0.000034 -0.000020 4.061081 13.955436 78.881062 18.130894 0.000025 -0.000011 3.654999 14.955355 78.881097 18.131782 0.000001 -0.000066 2.741241 0.000000 -0.000000 0.000001 0.173523 4.467148 7.976967 140.335662 54.777578 152.473496 -0.000042 -0.000015 3.350395 47.741144 77.366591 60.138586 0.000011 0.000004 2.842741 49.741228 77.366605 60.138682 -0.000004 0.000008 2.639707 -0.000001 -0.000001 -0.000000 -0.000005 -0.000008 0.000019 0.000001 0.000000 -0.000000 0.000029 0.000004 -0.000009 0.000001 -0.000000 -0.000002 -11.289991 -0.000067 -0.000008 -3.403927 -1.011308 -3.730002 -0.000036 -0.000017 -38.200329 -0.527134 0.181908 19.046157 -0.000005 -0.000017 -39.900856 -14.726800 -1.145790 13.330959 -0.000005 -15.261744 0.000024 0.952476 1.258718 -19.087341 -0.000015 -7.370724 -0.000000 -0.000001 -0.000000 -0.000000 -0.000039 -0.000052 0.000002 -0.000002 0.000000 0.000002 -0.000033 -0.000001 -0.000000 0.000000 0.000000 0.000000 11.315632 -0.000025 -0.000002 -10.468733 1.065659 -7.072322 -0.000049 -0.000002 -38.200329 -0.186817 0.083085 23.976233 -0.000035 -0.000038 -39.900871 18.367724 -0.608709 12.986111 -0.000038 -15.261696 0.000017 0.275540 -1.145866 -22.502615 -0.000033 -7.539977 0.000002 -0.000000 0.000001 -0.000000 -0.000035 -0.000005 0.000001 0.000001 0.000000 -0.000001 -0.000026 -0.000002 -0.000007 0.000001 0.000000 0.000003 
